<svg xmlns="http://www.w3.org/2000/svg" xmlns:xlink="http://www.w3.org/1999/xlink" width="500" zoomAndPan="magnify" viewBox="0 0 375 374.999991" height="500" preserveAspectRatio="xMidYMid meet" version="1.0"><defs><clipPath id="9e8c574acc"><path d="M 159 155 L 230 155 L 230 256.949219 L 159 256.949219 Z M 159 155 " clip-rule="nonzero"/></clipPath><clipPath id="0a4e430dde"><path d="M 65.921875 249 L 308.921875 249 L 308.921875 256.949219 L 65.921875 256.949219 Z M 65.921875 249 " clip-rule="nonzero"/></clipPath></defs><path fill="#fd863d" d="M 250.328125 209.753906 C 250.328125 209.753906 272.46875 207.339844 275.757812 213.925781 C 279.042969 220.511719 267.863281 251.472656 267.863281 251.472656 L 233.011719 251.472656 L 234.109375 225.34375 Z M 250.328125 209.753906 " fill-opacity="1" fill-rule="nonzero"/><path fill="#ec896b" d="M 239.699219 172.632812 C 239.699219 172.632812 243.5 171.867188 245.378906 171.183594 C 247.261719 170.5 249.480469 168.957031 250.679688 168.617188 C 251.875 168.273438 263.664062 167.589844 266.230469 167.417969 C 268.792969 167.246094 275.113281 165.878906 275.113281 165.878906 L 280.925781 147.902344 C 280.925781 147.902344 270.84375 150.128906 265.375 152.011719 C 259.90625 153.894531 252.046875 156.804688 252.046875 156.804688 Z M 239.699219 172.632812 " fill-opacity="1" fill-rule="nonzero"/><g clip-path="url(#9e8c574acc)"><path fill="#4d4d4d" d="M 178.222656 256.089844 C 178.222656 255.917969 181.980469 240.34375 183.007812 233.835938 C 184.03125 227.332031 188.132812 211.925781 187.960938 210.554688 C 187.792969 209.1875 178.5625 200.628906 176.855469 199.773438 C 175.144531 198.917969 173.777344 193.265625 172.753906 192.753906 C 171.726562 192.238281 167.96875 189.5 165.574219 185.394531 C 163.183594 181.285156 158.226562 170.671875 160.449219 164.335938 C 162.671875 158.003906 172.242188 159.714844 172.925781 159.03125 C 173.605469 158.347656 174.972656 157.320312 176.511719 158.347656 C 176.511719 158.347656 177.195312 155.265625 179.757812 155.265625 C 182.324219 155.265625 182.835938 157.148438 183.519531 156.460938 C 184.203125 155.777344 185.742188 155.09375 188.816406 157.488281 C 191.890625 159.886719 198.386719 170.328125 198.386719 172.039062 C 198.386719 173.753906 192.917969 175.292969 192.917969 175.292969 C 192.917969 175.292969 197.359375 177.347656 198.042969 178.546875 C 198.726562 179.742188 198.042969 180.429688 199.410156 180.429688 C 200.777344 180.429688 201.804688 180.085938 202.660156 181.285156 C 203.511719 182.480469 203.683594 182.824219 204.195312 182.824219 C 204.710938 182.824219 207.441406 180.429688 209.835938 181.625 C 212.226562 182.824219 216.160156 180.429688 216.160156 180.429688 L 229.660156 183.851562 L 200.707031 256.003906 Z M 178.222656 256.089844 " fill-opacity="1" fill-rule="nonzero"/></g><path fill="#333333" d="M 194.199219 174.59375 C 191.851562 172.5 188.347656 172.792969 185.457031 172.199219 C 185.242188 172.15625 185.027344 172.109375 184.8125 172.058594 C 184.96875 171.859375 185.007812 171.597656 184.808594 171.332031 C 184.132812 170.433594 183.136719 169.75 182.367188 168.917969 C 181.523438 168.003906 180.765625 167.015625 180.097656 165.960938 C 178.777344 163.890625 177.917969 161.667969 177.253906 159.3125 C 177.007812 158.449219 175.765625 158.816406 175.925781 159.679688 C 176.390625 162.167969 177.449219 164.59375 178.785156 166.730469 C 179.441406 167.78125 180.1875 168.78125 181.003906 169.714844 C 181.46875 170.25 182.015625 170.90625 182.609375 171.453125 C 180.308594 170.71875 178.113281 169.691406 176.070312 168.390625 C 175.375 167.949219 174.777344 169.019531 175.433594 169.480469 C 178.121094 171.363281 181.121094 172.785156 184.304688 173.597656 C 187.238281 174.347656 190.652344 174.066406 193.1875 175.90625 C 193.953125 176.460938 194.902344 175.21875 194.199219 174.59375 Z M 194.199219 174.59375 " fill-opacity="1" fill-rule="nonzero"/><path fill="#333333" d="M 194.609375 189.601562 C 194.117188 193.289062 192.699219 196.808594 191.152344 200.160156 C 190.402344 201.789062 189.609375 203.402344 188.855469 205.03125 C 188.117188 206.632812 187.175781 208.378906 186.820312 210.113281 C 186.617188 211.117188 188.066406 211.886719 188.570312 210.851562 C 189.398438 209.160156 189.953125 207.304688 190.730469 205.582031 C 191.507812 203.84375 192.332031 202.125 193.089844 200.378906 C 194.582031 196.933594 195.769531 193.386719 195.875 189.601562 C 195.898438 188.761719 194.714844 188.820312 194.609375 189.601562 Z M 194.609375 189.601562 " fill-opacity="1" fill-rule="nonzero"/><path fill="#333333" d="M 196.835938 182.652344 C 195.113281 184.039062 193.800781 185.765625 192.503906 187.546875 C 191.101562 189.46875 189.777344 191.449219 188.542969 193.488281 C 187.40625 195.363281 186.355469 197.3125 185.636719 199.390625 C 184.980469 201.28125 184.425781 203.609375 184.960938 205.589844 C 185.113281 206.152344 185.921875 206.011719 185.953125 205.453125 C 186.007812 204.40625 185.941406 203.371094 186.105469 202.328125 C 186.265625 201.335938 186.539062 200.363281 186.878906 199.417969 C 187.613281 197.390625 188.6875 195.5 189.808594 193.664062 C 190.933594 191.816406 192.128906 190.011719 193.386719 188.25 C 194.621094 186.523438 195.898438 184.722656 197.550781 183.367188 C 198.054688 182.953125 197.339844 182.25 196.835938 182.652344 Z M 196.835938 182.652344 " fill-opacity="0.5" fill-rule="nonzero"/><path fill="#ec896b" d="M 215.046875 156.375 C 215.046875 156.375 204.625 157.574219 196.59375 157.234375 C 188.558594 156.890625 185.3125 157.574219 184.972656 157.917969 C 184.628906 158.261719 190.269531 163.910156 191.464844 165.621094 C 192.660156 167.332031 196.25 171.613281 197.445312 171.953125 C 198.644531 172.296875 209.066406 169.214844 213.167969 168.015625 C 217.269531 166.820312 215.046875 156.375 215.046875 156.375 Z M 215.046875 156.375 " fill-opacity="1" fill-rule="nonzero"/><path fill="#333333" d="M 218.722656 177.003906 C 218.722656 177.003906 214.792969 177.6875 213.253906 178.203125 C 211.714844 178.714844 208.46875 186.25 208.46875 187.445312 C 208.46875 188.644531 213.59375 181.457031 214.621094 182.140625 C 215.644531 182.824219 214.277344 185.90625 214.792969 187.445312 C 215.304688 188.988281 216.875 191.597656 216.875 191.597656 L 222.3125 184.707031 Z M 218.722656 177.003906 " fill-opacity="1" fill-rule="nonzero"/><path fill="#86282c" d="M 222.207031 132.179688 C 224.382812 127.820312 226.664062 128.820312 226.664062 128.820312 C 227.738281 121.390625 236.136719 118.195312 244.375 125.488281 C 249.511719 130.035156 251.921875 135.800781 253.007812 139.496094 C 252.910156 138.054688 252.585938 136.609375 252.238281 135.339844 C 251.410156 132.304688 249.910156 129.464844 247.929688 127.027344 C 247.4375 126.421875 248.113281 126.074219 248.617188 126.667969 C 250.890625 129.328125 252.765625 132.023438 253.671875 135.40625 C 254.324219 137.847656 254.800781 140.765625 254.066406 143.28125 C 255.257812 143.785156 260.5 146.691406 255.152344 156.984375 C 249.15625 168.519531 237.5625 174.199219 237.5625 174.199219 L 230.074219 173.910156 L 220.222656 145.269531 C 220.222656 145.269531 220.027344 136.535156 222.207031 132.179688 Z M 222.207031 132.179688 " fill-opacity="1" fill-rule="nonzero"/><path fill="#ec896b" d="M 240.066406 168.152344 C 240.066406 168.152344 238.28125 174.710938 238.375 178.203125 C 238.464844 181.695312 238.359375 182.4375 238.359375 182.4375 C 238.359375 182.4375 225.617188 192.226562 224.253906 195.207031 C 223.714844 196.378906 220.105469 201.21875 219.699219 201.183594 C 219.574219 201.171875 219.28125 200.253906 219.226562 200.125 C 219.035156 199.695312 218.847656 199.265625 218.667969 198.832031 C 218.304688 197.96875 217.964844 197.09375 217.679688 196.199219 C 217.105469 194.417969 216.734375 192.546875 216.828125 190.667969 C 216.949219 188.136719 217.875 185.746094 218.359375 183.28125 C 218.878906 180.628906 218.449219 178.125 218.121094 175.476562 C 218.042969 174.8125 218.445312 174.421875 218.640625 173.824219 C 218.871094 173.125 218.996094 172.394531 219.234375 171.699219 C 223.296875 159.847656 240.066406 168.152344 240.066406 168.152344 Z M 240.066406 168.152344 " fill-opacity="1" fill-rule="nonzero"/><path fill="#1a1a1a" d="M 219.304688 173.230469 C 219.777344 172.589844 220.378906 172.03125 221.144531 172.070312 C 222.046875 172.117188 222.945312 172.164062 223.84375 172.210938 C 226.492188 172.351562 229.140625 172.488281 231.785156 172.628906 C 232.710938 172.675781 233.636719 172.722656 234.558594 172.773438 C 234.558594 172.773438 232.511719 177.660156 227.164062 179.785156 C 224.246094 180.945312 219.726562 179.496094 218.421875 176.566406 C 218.265625 176.21875 218.15625 175.84375 218.183594 175.464844 C 218.21875 175.007812 218.449219 174.589844 218.683594 174.199219 C 218.859375 173.898438 219.066406 173.554688 219.304688 173.230469 Z M 219.304688 173.230469 " fill-opacity="1" fill-rule="nonzero"/><path fill="#ec896b" d="M 218.945312 143.660156 C 217.9375 145.789062 209.9375 160.332031 211.496094 167.171875 C 212.320312 170.785156 216.351562 173.660156 219.296875 174.828125 C 228.371094 178.425781 235.125 174.390625 239.828125 168.855469 C 239.828125 168.855469 249.726562 168.71875 249.597656 160.296875 C 249.503906 154.109375 242.1875 159.832031 242.1875 159.832031 C 242.1875 159.832031 242.34375 156.699219 243.351562 152.054688 C 243.792969 150.023438 243.332031 147.351562 241.476562 146.421875 C 235.882812 143.609375 226.980469 140.539062 227.285156 134.175781 C 227.285156 134.171875 220.601562 140.171875 218.945312 143.660156 Z M 218.945312 143.660156 " fill-opacity="1" fill-rule="nonzero"/><path fill="#d75b43" d="M 220.222656 155.085938 C 220.476562 154.75 221.058594 154.683594 221.480469 154.960938 C 221.894531 155.230469 222.308594 155.5 222.722656 155.769531 C 223.144531 156.042969 223.289062 156.558594 223.03125 156.898438 C 222.777344 157.234375 222.195312 157.300781 221.773438 157.023438 C 221.359375 156.753906 220.945312 156.484375 220.53125 156.214844 C 220.109375 155.941406 219.964844 155.425781 220.222656 155.085938 Z M 220.222656 155.085938 " fill-opacity="1" fill-rule="nonzero"/><path fill="#531916" d="M 233.683594 143.289062 C 234.382812 144.085938 235.195312 144.761719 235.851562 145.59375 C 236.515625 146.441406 237.074219 147.367188 237.707031 148.234375 C 238.277344 149.019531 237.109375 149.96875 236.535156 149.179688 C 235.902344 148.3125 235.347656 147.382812 234.679688 146.539062 C 234.019531 145.710938 233.207031 145.027344 232.507812 144.234375 C 231.867188 143.503906 233.039062 142.558594 233.683594 143.289062 Z M 233.683594 143.289062 " fill-opacity="1" fill-rule="nonzero"/><path fill="#531916" d="M 217.277344 144.953125 C 217.96875 144.320312 218.742188 144.125 219.640625 143.949219 C 220.582031 143.765625 220.980469 145.214844 220.027344 145.402344 C 219.433594 145.519531 218.816406 145.578125 218.355469 146.003906 C 217.644531 146.65625 216.566406 145.609375 217.277344 144.953125 Z M 217.277344 144.953125 " fill-opacity="1" fill-rule="nonzero"/><path fill="#86282c" d="M 213.550781 155.464844 C 213.550781 155.464844 214.046875 157.066406 215.398438 157.285156 C 216.75 157.507812 223.6875 157.785156 228.03125 160.46875 C 230.636719 162.074219 235.226562 162.875 238.730469 160.917969 C 242.234375 158.957031 242.988281 153.859375 242.988281 153.859375 L 244.382812 158.417969 C 244.382812 158.417969 242.949219 159.566406 241.789062 161.664062 C 240.628906 163.761719 239.675781 170.351562 236.972656 169.90625 C 236.972656 169.90625 232.566406 179.089844 222.75 177.257812 C 207.304688 174.375 208.960938 161.324219 213.550781 155.464844 Z M 213.550781 155.464844 " fill-opacity="1" fill-rule="nonzero"/><path fill="#1a1a1a" d="M 216.78125 161.664062 C 218.992188 163.355469 220.300781 163.617188 223.011719 163.800781 C 223.785156 163.851562 223.839844 164.550781 223.039062 164.527344 C 220.277344 164.445312 217.910156 164.828125 215.96875 162.546875 C 215.46875 161.960938 216.160156 161.191406 216.78125 161.664062 Z M 216.78125 161.664062 " fill-opacity="1" fill-rule="nonzero"/><path fill="#1a1a1a" d="M 234.832031 152.988281 C 233.933594 152.460938 232.96875 152.054688 231.964844 151.78125 C 231.789062 151.730469 231.597656 151.679688 231.464844 151.550781 C 230.5625 150.652344 233.441406 150.886719 233.746094 150.960938 C 234.390625 151.121094 235.007812 151.457031 235.472656 151.933594 C 235.804688 152.273438 236.460938 153.011719 236.449219 153.511719 C 236.449219 153.554688 236.441406 153.605469 236.410156 153.636719 C 236.375 153.675781 236.316406 153.679688 236.265625 153.679688 C 235.898438 153.671875 235.578125 153.453125 235.269531 153.253906 C 235.125 153.164062 234.980469 153.074219 234.832031 152.988281 Z M 234.832031 152.988281 " fill-opacity="1" fill-rule="nonzero"/><path fill="#1a1a1a" d="M 218.917969 148.730469 C 219.339844 148.722656 219.761719 148.714844 220.183594 148.703125 C 220.773438 148.6875 219.984375 147.695312 219.761719 147.570312 C 219.445312 147.394531 219.0625 147.417969 218.703125 147.449219 C 218.011719 147.507812 217.308594 147.570312 216.648438 147.785156 C 215.710938 148.09375 216.125 148.832031 216.964844 148.753906 C 217.605469 148.691406 218.273438 148.738281 218.917969 148.730469 Z M 218.917969 148.730469 " fill-opacity="1" fill-rule="nonzero"/><path fill="#4d4d4d" d="M 214.449219 195.320312 C 214.621094 194.980469 218.039062 189.671875 219.234375 188.300781 C 220.429688 186.933594 226.925781 182.484375 227.949219 181.113281 C 228.976562 179.742188 231.027344 179.230469 231.027344 179.230469 C 231.027344 179.230469 235.8125 177.859375 237.519531 177.859375 C 239.230469 177.859375 248.285156 184.535156 248.285156 184.535156 L 245.039062 192.582031 L 216.671875 200.457031 Z M 214.449219 195.320312 " fill-opacity="1" fill-rule="nonzero"/><path fill="#333333" d="M 239.238281 190.066406 C 238.601562 189.066406 238.417969 187.9375 238.238281 186.789062 C 238.039062 185.496094 237.828125 184.207031 237.59375 182.917969 C 237.378906 181.726562 237.261719 180.410156 236.871094 179.261719 C 236.609375 178.488281 235.957031 177.996094 235.140625 178.207031 C 234.574219 178.351562 234.671875 179.316406 235.28125 179.257812 C 235.9375 179.195312 236.117188 181.859375 236.191406 182.292969 C 236.363281 183.316406 236.527344 184.339844 236.6875 185.363281 C 236.96875 187.164062 237.035156 189.183594 238.09375 190.734375 C 238.570312 191.433594 239.699219 190.792969 239.238281 190.066406 Z M 239.238281 190.066406 " fill-opacity="1" fill-rule="nonzero"/><path fill="#333333" d="M 231.964844 182.910156 C 233.675781 182.738281 237.09375 184.449219 237.09375 184.449219 C 237.09375 184.449219 237.09375 182.566406 236.75 180.855469 C 236.410156 179.144531 235.210938 178.289062 235.210938 178.289062 L 235.25 178.179688 C 233.285156 178.582031 231.027344 179.230469 231.027344 179.230469 C 231.027344 179.230469 228.976562 179.742188 227.949219 181.113281 C 227.578125 181.609375 226.492188 182.507812 225.203125 183.515625 C 226.949219 183.363281 230.675781 183.039062 231.964844 182.910156 Z M 231.964844 182.910156 " fill-opacity="0.5" fill-rule="nonzero"/><path fill="#4d4d4d" d="M 250.847656 255.578125 C 250.847656 255.578125 255.292969 245.136719 257.171875 239.65625 C 259.050781 234.179688 263.152344 226.476562 263.152344 226.476562 C 263.152344 226.476562 266.058594 223.566406 268.449219 219.628906 C 270.84375 215.691406 271.355469 212.269531 271.355469 212.269531 C 271.355469 212.269531 279.558594 201.140625 284.34375 196.519531 C 289.128906 191.898438 291.519531 188.472656 292.886719 185.90625 C 294.253906 183.339844 292.714844 181.96875 294.9375 180.769531 C 297.160156 179.570312 298.527344 180.597656 300.234375 174.265625 C 301.945312 167.929688 303.824219 155.265625 301.433594 152.695312 C 299.039062 150.128906 292.714844 149.445312 292.714844 149.445312 C 292.714844 149.445312 291.863281 147.21875 290.496094 147.390625 C 289.128906 147.5625 289.128906 147.5625 289.128906 147.5625 C 289.128906 147.5625 284.515625 144.652344 277.507812 148.589844 C 270.5 152.523438 266.570312 157.320312 266.914062 160.058594 C 267.253906 162.796875 269.816406 166.734375 269.816406 166.734375 C 269.816406 166.734375 263.664062 172.210938 262.640625 173.921875 C 261.613281 175.636719 261.785156 175.636719 260.929688 176.148438 C 260.078125 176.660156 258.539062 179.402344 258.710938 180.597656 C 258.710938 180.597656 255.632812 180.941406 254.777344 181.285156 C 253.925781 181.625 252.730469 179.914062 251.363281 181.457031 C 249.996094 182.996094 248.113281 181.457031 246.40625 182.480469 C 244.695312 183.507812 243.671875 185.050781 243.671875 185.050781 C 243.671875 185.050781 238.375 185.5625 233.929688 187.960938 C 229.488281 190.355469 221.457031 194.292969 221.457031 194.292969 L 214.636719 194.519531 L 203.683594 207.132812 L 185.570312 255.75 Z M 250.847656 255.578125 " fill-opacity="1" fill-rule="nonzero"/><path fill="#333333" d="M 292.617188 148.984375 C 288.496094 148.179688 283.777344 149.679688 280.355469 151.960938 C 277.015625 154.191406 273.5625 157.960938 273.644531 162.234375 C 272.238281 163.144531 270.941406 164.234375 269.660156 165.308594 C 268.710938 166.109375 270.078125 167.460938 271.019531 166.671875 C 272.679688 165.285156 274.363281 163.878906 276.304688 162.898438 C 277.167969 162.460938 278.195312 162.25 278.949219 161.621094 C 279.640625 161.046875 280.027344 160.175781 280.550781 159.460938 C 281.691406 157.90625 283.226562 156.648438 284.929688 155.761719 C 286.648438 154.863281 288.5 154.515625 290.390625 154.183594 C 291.132812 154.050781 290.867188 153.027344 290.226562 152.960938 C 286.386719 152.570312 282.246094 154.898438 279.796875 157.734375 C 279.175781 158.449219 278.738281 159.402344 278.0625 160.050781 C 277.679688 160.421875 277.132812 160.515625 276.648438 160.703125 C 276.234375 160.859375 275.824219 161.039062 275.425781 161.234375 C 275.9375 157.839844 278.75 154.984375 281.535156 153.1875 C 283.128906 152.15625 284.863281 151.386719 286.695312 150.902344 C 288.597656 150.398438 290.492188 150.34375 292.441406 150.273438 C 293.144531 150.246094 293.371094 149.132812 292.617188 148.984375 Z M 292.617188 148.984375 " fill-opacity="1" fill-rule="nonzero"/><path fill="#333333" d="M 266.949219 200.21875 C 269.65625 197.210938 272.023438 194.070312 273.75 190.398438 C 273.976562 189.914062 273.265625 189.488281 273.027344 189.972656 C 271.417969 193.238281 269.050781 196.167969 266.625 198.855469 C 265.410156 200.203125 264.144531 201.507812 262.882812 202.8125 C 262.34375 203.367188 261.828125 203.898438 261.386719 204.464844 C 260.382812 203.535156 259.65625 202.382812 259.046875 201.164062 C 256.542969 196.167969 255.652344 190.273438 255.765625 184.71875 C 255.777344 184.164062 254.925781 184.164062 254.90625 184.71875 C 254.683594 190.90625 255.359375 197.371094 258.542969 202.832031 C 259.136719 203.851562 259.855469 204.730469 260.707031 205.511719 C 260.46875 205.964844 260.289062 206.460938 260.179688 207.019531 C 259.472656 210.675781 258.6875 214.191406 257.167969 217.617188 C 256.414062 219.3125 255.542969 220.953125 254.5625 222.527344 C 253.636719 224.007812 252.617188 225.449219 252.050781 227.117188 C 251.332031 229.226562 251.519531 231.539062 250.996094 233.699219 C 250.46875 235.871094 249.566406 237.910156 248.84375 240.019531 C 248.640625 240.613281 249.585938 241.023438 249.863281 240.449219 C 250.695312 238.734375 251.398438 236.941406 251.933594 235.109375 C 252.484375 233.234375 252.636719 231.371094 252.851562 229.4375 C 253.078125 227.457031 253.960938 225.832031 255.015625 224.179688 C 256.011719 222.613281 256.957031 221.027344 257.761719 219.351562 C 259.328125 216.09375 260.464844 212.636719 261.101562 209.074219 C 261.25 208.234375 261.308594 207.347656 261.578125 206.53125 C 261.601562 206.457031 261.632812 206.390625 261.660156 206.320312 C 262.800781 207.25 263.851562 208.242188 264.9375 209.242188 C 266.726562 210.890625 269.554688 212.472656 271.875 210.847656 C 272.519531 210.394531 271.941406 209.347656 271.246094 209.769531 C 268.683594 211.335938 266.296875 208.789062 264.582031 207.148438 C 263.863281 206.457031 263.066406 205.871094 262.296875 205.246094 C 262.582031 204.882812 262.910156 204.542969 263.234375 204.203125 C 264.480469 202.882812 265.734375 201.570312 266.949219 200.21875 Z M 266.949219 200.21875 " fill-opacity="0.5" fill-rule="nonzero"/><path fill="#333333" d="M 213.648438 196.304688 C 213.414062 197.125 213.21875 197.96875 212.96875 198.8125 C 210.855469 206.050781 206.75 212.453125 203.808594 219.347656 C 202.980469 221.285156 202.351562 223.308594 201.476562 225.222656 C 200.585938 227.167969 199.25 228.832031 198.191406 230.679688 C 197.167969 232.464844 196.378906 234.402344 195.867188 236.398438 C 195.316406 238.539062 195.3125 240.738281 194.878906 242.890625 C 194.046875 247.023438 190.453125 250.1875 190.269531 254.5 C 190.230469 255.390625 191.714844 255.625 191.851562 254.714844 C 192.402344 250.996094 194.945312 248.199219 196.128906 244.714844 C 196.835938 242.648438 196.773438 240.4375 197.171875 238.308594 C 197.558594 236.226562 198.242188 234.195312 199.214844 232.316406 C 200.1875 230.425781 201.542969 228.769531 202.515625 226.882812 C 203.472656 225.023438 204.085938 223.007812 204.863281 221.074219 C 206.433594 217.15625 208.441406 213.4375 210.28125 209.648438 C 211.496094 207.144531 212.632812 204.59375 213.515625 201.949219 C 214.042969 200.371094 214.335938 198.726562 214.78125 197.121094 C 215.003906 196.324219 215.261719 195.53125 215.601562 194.777344 C 215.917969 194.074219 216.390625 193.4375 216.652344 192.714844 C 216.742188 192.464844 216.761719 192.109375 216.515625 192.003906 C 216.324219 191.921875 216.113281 192.0625 215.957031 192.199219 C 214.660156 193.351562 214.085938 194.78125 213.648438 196.304688 Z M 213.648438 196.304688 " fill-opacity="0.5" fill-rule="nonzero"/><path fill="#333333" d="M 244.597656 207.769531 C 244.089844 207.269531 243.378906 207.152344 242.734375 206.996094 C 241.941406 206.808594 241.144531 206.628906 240.347656 206.464844 C 233.445312 205.050781 226.234375 204.285156 219.214844 204.824219 C 218.558594 204.875 218.402344 205.703125 218.765625 206.078125 C 218.4375 206.070312 218.097656 206.238281 217.949219 206.652344 C 216.832031 209.738281 215.714844 212.835938 214.917969 216.039062 C 214.519531 217.65625 214.210938 219.289062 214.011719 220.949219 C 213.863281 222.21875 213.519531 223.914062 214.167969 225.085938 C 214.5 225.691406 215.050781 226.164062 215.527344 226.632812 C 216.097656 227.199219 216.679688 227.753906 217.273438 228.292969 C 218.394531 229.3125 219.550781 230.292969 220.742188 231.214844 C 221.878906 232.09375 223.027344 232.644531 224.453125 232.453125 C 225.957031 232.25 227.457031 231.691406 228.917969 231.269531 C 230.425781 230.835938 231.933594 230.390625 233.429688 229.90625 C 234.800781 229.464844 236.238281 229.070312 237.53125 228.410156 C 238.726562 227.804688 239.378906 226.722656 239.859375 225.4375 C 240.441406 223.871094 240.972656 222.273438 241.527344 220.691406 C 242.671875 217.4375 243.925781 214.203125 244.960938 210.90625 C 245.28125 209.882812 245.414062 208.574219 244.597656 207.769531 Z M 243.257812 210.984375 C 243.003906 211.714844 242.746094 212.449219 242.488281 213.179688 C 241.992188 214.59375 241.496094 216.003906 241 217.417969 C 240.488281 218.882812 239.972656 220.347656 239.457031 221.808594 C 239.003906 223.109375 238.648438 224.574219 237.984375 225.765625 C 237.324219 226.953125 236.03125 227.242188 234.890625 227.640625 C 233.546875 228.105469 232.191406 228.535156 230.832031 228.945312 C 229.523438 229.339844 228.207031 229.714844 226.890625 230.085938 C 225.582031 230.457031 224.027344 231.1875 222.714844 230.539062 C 221.59375 229.988281 220.582031 229.003906 219.625 228.183594 C 218.601562 227.304688 217.605469 226.382812 216.640625 225.429688 C 216.152344 224.945312 215.46875 224.453125 215.398438 223.691406 C 215.332031 222.957031 215.460938 222.152344 215.539062 221.421875 C 215.714844 219.757812 216.039062 218.109375 216.441406 216.492188 C 217.234375 213.289062 218.351562 210.191406 219.46875 207.105469 C 219.605469 206.734375 219.488281 206.4375 219.269531 206.261719 C 224.886719 206.261719 230.460938 206.453125 236.027344 207.367188 C 237.382812 207.589844 238.734375 207.84375 240.078125 208.132812 C 240.726562 208.269531 241.375 208.414062 242.019531 208.566406 C 242.492188 208.675781 243.503906 208.703125 243.644531 209.316406 C 243.757812 209.8125 243.417969 210.535156 243.257812 210.984375 Z M 243.257812 210.984375 " fill-opacity="0.5" fill-rule="nonzero"/><path fill="#333333" d="M 246.304688 182.453125 C 245.691406 182.730469 245.140625 183.0625 244.617188 183.484375 C 244.203125 183.816406 243.9375 184.238281 243.40625 184.304688 C 242.058594 184.476562 240.761719 184.492188 239.425781 184.839844 C 236.863281 185.511719 234.386719 186.664062 232.0625 187.921875 C 229.769531 189.160156 227.605469 190.625 225.570312 192.253906 C 223.640625 193.792969 221.859375 195.539062 220.640625 197.707031 C 220.199219 198.492188 221.175781 199.117188 221.8125 198.613281 C 223.890625 196.957031 226.28125 195.011719 228.632812 193.78125 C 229.355469 193.402344 228.59375 192.925781 227.878906 193.242188 C 226.988281 193.636719 226.121094 194.074219 225.277344 194.546875 C 225.839844 194.054688 226.425781 193.585938 227.019531 193.136719 C 229.039062 191.609375 231.203125 190.261719 233.449219 189.09375 C 235.773438 187.886719 238.226562 186.785156 240.804688 186.261719 C 241.453125 186.128906 242.109375 186.042969 242.773438 186.015625 C 243.261719 185.996094 243.789062 186.0625 244.261719 185.902344 C 244.722656 185.75 245.023438 185.386719 245.371094 185.070312 C 245.90625 184.585938 246.503906 184.21875 247.144531 183.898438 C 248.117188 183.40625 247.265625 182.019531 246.304688 182.453125 Z M 246.304688 182.453125 " fill-opacity="1" fill-rule="nonzero"/><path fill="#006935" d="M 81.253906 218.988281 C 81.253906 218.988281 81.765625 211.867188 82.566406 209.488281 C 83.367188 207.113281 83.632812 205.925781 83.90625 205.925781 C 84.175781 205.921875 83.648438 209.484375 84.199219 211.558594 C 84.75 213.632812 85.320312 220.160156 85.332031 222.53125 C 85.34375 224.90625 82.636719 225.511719 82.636719 225.511719 Z M 81.253906 218.988281 " fill-opacity="1" fill-rule="nonzero"/><path fill="#008839" d="M 83.167969 222.839844 C 83.167969 222.839844 83.960938 218.679688 86.113281 215.703125 C 88.265625 212.726562 89.617188 211.832031 89.890625 212.128906 C 90.160156 212.421875 88.8125 213.617188 88.28125 216.289062 C 87.753906 218.960938 87.492188 221.632812 87.492188 221.632812 L 84.261719 225.800781 L 82.898438 223.730469 Z M 83.167969 222.839844 " fill-opacity="1" fill-rule="nonzero"/><path fill="#008839" d="M 78.570312 224.636719 C 78.570312 224.636719 77.746094 221.378906 78 217.816406 C 78.253906 214.257812 79.0625 212.769531 78.785156 211.582031 C 78.507812 210.398438 78.507812 210.101562 79.597656 211.28125 C 80.683594 212.464844 83.691406 218.980469 83.445312 224.320312 C 83.195312 229.660156 79.941406 228.785156 79.941406 228.785156 Z M 78.570312 224.636719 " fill-opacity="1" fill-rule="nonzero"/><path fill="#006935" d="M 80.75 227.890625 C 80.75 227.890625 81.28125 225.21875 83.980469 222.835938 C 86.675781 220.449219 89.371094 217.765625 89.90625 216.28125 C 90.441406 214.796875 90.710938 214.496094 90.710938 214.792969 C 90.714844 215.089844 91.269531 218.054688 87.234375 224.601562 C 83.203125 231.144531 82.664062 231.742188 82.664062 231.742188 Z M 80.75 227.890625 " fill-opacity="1" fill-rule="nonzero"/><path fill="#009341" d="M 75.625 231.773438 C 75.625 231.773438 75.875 227.023438 73.414062 221.695312 C 70.953125 216.363281 69.320312 214.296875 69.589844 213.996094 C 69.859375 213.699219 74.203125 216.054688 78.019531 221.972656 C 81.835938 227.886719 82.660156 231.148438 82.660156 231.148438 C 82.660156 231.148438 84.265625 226.394531 88.582031 223.109375 C 92.902344 219.828125 97.222656 217.734375 97.761719 216.542969 C 98.296875 215.355469 98.304688 217.132812 96.957031 218.921875 C 95.613281 220.707031 90.484375 224.882812 89.410156 226.667969 C 88.335938 228.453125 86.722656 231.425781 86.722656 231.425781 C 86.722656 231.425781 85.367188 230.839844 85.097656 231.136719 C 84.828125 231.433594 84.019531 232.328125 84.019531 232.328125 C 84.019531 232.328125 83.207031 232.332031 82.398438 232.632812 C 81.585938 232.933594 80.222656 231.160156 79.144531 231.460938 C 78.0625 231.761719 77.253906 232.953125 77.253906 232.953125 C 77.253906 232.953125 76.4375 231.769531 75.625 231.773438 Z M 75.625 231.773438 " fill-opacity="1" fill-rule="nonzero"/><path fill="#006935" d="M 82.644531 228.628906 C 82.046875 226.273438 80.308594 224.347656 78.832031 222.5625 C 78.503906 222.160156 78.246094 222.496094 78.542969 222.898438 C 79.949219 224.789062 80.851562 226.871094 81.980469 228.941406 C 82.191406 229.328125 82.753906 229.070312 82.644531 228.628906 Z M 82.644531 228.628906 " fill-opacity="1" fill-rule="nonzero"/><path fill="#bcc0c0" d="M 70.652344 231.46875 C 70.785156 231.195312 91.785156 230.511719 93.152344 231.46875 C 94.515625 232.425781 90.96875 247.996094 90.558594 248.953125 C 90.152344 249.910156 74.605469 250.320312 73.652344 249.089844 C 72.695312 247.859375 70.242188 232.289062 70.652344 231.46875 Z M 70.652344 231.46875 " fill-opacity="1" fill-rule="nonzero"/><path fill="#acb1b0" d="M 90.558594 248.953125 C 90.679688 248.671875 91.078125 247.101562 91.542969 245.007812 C 89.597656 245.949219 87.140625 246.570312 84.421875 245.949219 C 77.984375 244.46875 77.410156 231.515625 77.394531 231.097656 C 73.648438 231.207031 70.703125 231.367188 70.652344 231.46875 C 70.242188 232.289062 72.695312 247.859375 73.648438 249.089844 C 74.605469 250.320312 90.152344 249.910156 90.558594 248.953125 Z M 90.558594 248.953125 " fill-opacity="0.35" fill-rule="nonzero"/><path fill="#acb1b0" d="M 73.027344 234.480469 C 72.929688 234.210938 72.726562 233.929688 72.414062 233.914062 C 72.289062 233.90625 72.167969 233.984375 72.105469 234.089844 C 72.050781 234.183594 72.046875 234.289062 72.082031 234.386719 C 72.039062 234.484375 72.046875 234.601562 72.097656 234.703125 C 72.242188 234.980469 72.597656 235.039062 72.855469 234.902344 C 72.992188 234.828125 73.085938 234.628906 73.027344 234.480469 Z M 73.027344 234.480469 " fill-opacity="1" fill-rule="nonzero"/><path fill="#acb1b0" d="M 73.171875 232.628906 C 72.691406 232.628906 72.691406 233.378906 73.171875 233.378906 C 73.652344 233.378906 73.652344 232.628906 73.171875 232.628906 Z M 73.171875 232.628906 " fill-opacity="1" fill-rule="nonzero"/><path fill="#acb1b0" d="M 85.347656 246.847656 C 85.25 246.566406 85.019531 246.335938 84.726562 246.261719 C 84.421875 246.1875 84.089844 246.257812 83.871094 246.492188 C 83.667969 246.703125 83.625 247.058594 83.804688 247.296875 C 83.792969 247.421875 83.8125 247.550781 83.878906 247.65625 C 83.972656 247.796875 84.085938 247.875 84.242188 247.933594 C 84.382812 247.988281 84.5625 247.984375 84.707031 247.945312 C 84.855469 247.910156 85.003906 247.824219 85.113281 247.71875 C 85.335938 247.496094 85.445312 247.152344 85.347656 246.847656 Z M 85.347656 246.847656 " fill-opacity="1" fill-rule="nonzero"/><path fill="#acb1b0" d="M 83.675781 244.417969 C 83.671875 244.257812 83.609375 244.097656 83.496094 243.980469 C 83.386719 243.875 83.210938 243.792969 83.058594 243.800781 C 82.714844 243.816406 82.453125 244.074219 82.441406 244.417969 C 82.441406 244.449219 82.4375 244.476562 82.4375 244.503906 C 82.433594 244.660156 82.511719 244.832031 82.621094 244.941406 C 82.726562 245.050781 82.902344 245.132812 83.058594 245.125 C 83.21875 245.117188 83.386719 245.066406 83.496094 244.941406 C 83.605469 244.824219 83.683594 244.667969 83.679688 244.503906 C 83.679688 244.476562 83.675781 244.449219 83.675781 244.417969 Z M 83.675781 244.417969 " fill-opacity="1" fill-rule="nonzero"/><path fill="#acb1b0" d="M 91.570312 242.742188 C 91.5625 242.574219 91.5 242.410156 91.382812 242.292969 C 91.273438 242.183594 91.09375 242.097656 90.933594 242.105469 C 90.582031 242.121094 90.3125 242.386719 90.300781 242.742188 C 90.300781 242.769531 90.300781 242.796875 90.296875 242.824219 C 90.292969 242.984375 90.371094 243.164062 90.484375 243.277344 C 90.59375 243.386719 90.777344 243.46875 90.933594 243.460938 C 91.097656 243.457031 91.269531 243.402344 91.382812 243.277344 C 91.496094 243.152344 91.578125 242.996094 91.570312 242.824219 C 91.570312 242.796875 91.570312 242.769531 91.570312 242.742188 Z M 91.570312 242.742188 " fill-opacity="1" fill-rule="nonzero"/><path fill="#acb1b0" d="M 89.425781 232.621094 C 88.609375 232.621094 88.609375 233.890625 89.425781 233.890625 C 90.242188 233.890625 90.242188 232.621094 89.425781 232.621094 Z M 89.425781 232.621094 " fill-opacity="1" fill-rule="nonzero"/><path fill="#acb1b0" d="M 90.265625 248.691406 C 84.886719 248.695312 79.464844 248.515625 74.09375 248.796875 C 73.355469 248.835938 73.355469 249.90625 74.09375 249.945312 C 79.464844 250.230469 84.886719 250.050781 90.265625 250.050781 C 91.136719 250.050781 91.140625 248.691406 90.265625 248.691406 Z M 90.265625 248.691406 " fill-opacity="1" fill-rule="nonzero"/><path fill="#91a9bc" d="M 103.003906 247.878906 C 103.003906 247.878906 102.835938 249.761719 103.859375 250.101562 C 104.886719 250.445312 200.242188 250.101562 200.242188 250.101562 C 200.242188 250.101562 199.726562 248.21875 198.875 248.21875 C 198.019531 248.21875 152.734375 247.707031 152.734375 247.707031 Z M 103.003906 247.878906 " fill-opacity="1" fill-rule="nonzero"/><path fill="#6e8a9b" d="M 161.109375 248.050781 C 161.09375 247.953125 161.074219 247.859375 161.054688 247.769531 C 157.746094 247.730469 152.734375 247.707031 152.734375 247.707031 L 103.007812 247.878906 C 103.007812 247.878906 102.835938 249.761719 103.859375 250.101562 C 104.429688 250.292969 136.855469 250.273438 163.074219 250.214844 C 162.421875 250.0625 161.34375 249.578125 161.109375 248.050781 Z M 161.109375 248.050781 " fill-opacity="1" fill-rule="nonzero"/><path fill="#aec0d3" d="M 101.296875 248.5625 C 101.296875 248.5625 159.398438 248.90625 160.253906 248.734375 C 161.109375 248.5625 161.792969 247.191406 161.792969 247.191406 C 161.792969 247.191406 147.949219 200.117188 146.925781 199.089844 C 145.898438 198.0625 87.113281 199.773438 86.089844 200.800781 C 85.0625 201.828125 99.757812 247.878906 101.296875 248.5625 Z M 101.296875 248.5625 " fill-opacity="1" fill-rule="nonzero"/><path fill="#91a9bc" d="M 161.792969 247.195312 C 161.792969 247.195312 147.949219 200.117188 146.925781 199.089844 C 145.898438 198.0625 87.113281 199.777344 86.089844 200.800781 C 86.03125 200.859375 86.023438 201.0625 86.058594 201.386719 C 92.785156 200.648438 144.261719 199.128906 145.726562 199.945312 C 147.1875 200.757812 159.492188 244.09375 160.742188 248.507812 C 161.351562 248.066406 161.792969 247.195312 161.792969 247.195312 Z M 161.792969 247.195312 " fill-opacity="1" fill-rule="nonzero"/><path fill="#6e8a9b" d="M 166.492188 248.609375 C 165.710938 248.539062 164.898438 248.617188 164.109375 248.628906 C 163.539062 248.640625 163.539062 249.511719 164.109375 249.519531 C 164.894531 249.535156 165.710938 249.613281 166.492188 249.542969 C 167.09375 249.488281 167.09375 248.660156 166.492188 248.609375 Z M 166.492188 248.609375 " fill-opacity="1" fill-rule="nonzero"/><path fill="#6e8a9b" d="M 167.730469 248.585938 C 167.164062 248.585938 167.160156 249.472656 167.730469 249.472656 C 168.300781 249.472656 168.300781 248.585938 167.730469 248.585938 Z M 167.730469 248.585938 " fill-opacity="1" fill-rule="nonzero"/><path fill="#6e8a9b" d="M 168.921875 248.675781 C 168.347656 248.675781 168.34375 249.574219 168.921875 249.574219 C 169.5 249.574219 169.5 248.675781 168.921875 248.675781 Z M 168.921875 248.675781 " fill-opacity="1" fill-rule="nonzero"/><path fill="#6e8a9b" d="M 172.703125 248.761719 C 171.941406 248.621094 171.125 248.707031 170.351562 248.722656 C 169.777344 248.738281 169.777344 249.605469 170.351562 249.617188 C 171.125 249.636719 171.941406 249.71875 172.703125 249.582031 C 173.109375 249.507812 173.109375 248.835938 172.703125 248.761719 Z M 172.703125 248.761719 " fill-opacity="1" fill-rule="nonzero"/><path fill="#ffffff" d="M 243.847656 240.378906 C 243.847656 240.378906 243.582031 238.78125 243.847656 238.515625 C 244.113281 238.25 246.238281 238.25 246.238281 238.25 C 246.238281 238.25 245.972656 235.855469 246.238281 235.855469 C 246.503906 235.855469 304.929688 235.589844 304.929688 236.121094 C 304.929688 236.652344 305.460938 237.984375 304.929688 237.984375 C 304.398438 237.984375 301.476562 237.984375 301.476562 237.984375 C 301.476562 237.984375 301.742188 240.378906 301.476562 240.378906 C 301.210938 240.378906 243.847656 240.378906 243.847656 240.378906 Z M 243.847656 240.378906 " fill-opacity="1" fill-rule="nonzero"/><path fill="#e4e9eb" d="M 304.929688 236.121094 C 304.929688 235.800781 283.863281 235.769531 266.972656 235.796875 C 267.019531 236.246094 267.113281 237.324219 267.046875 237.773438 C 264.78125 237.78125 262.515625 237.808594 260.25 237.816406 C 256.164062 237.828125 252.050781 237.703125 247.96875 237.898438 C 247.417969 237.921875 247.546875 238.222656 248.097656 238.25 C 252.175781 238.445312 256.164062 238.289062 260.25 238.300781 C 261.777344 238.304688 263.300781 238.320312 264.828125 238.332031 L 264.828125 240.378906 L 301.476562 240.378906 C 301.742188 240.378906 301.476562 237.984375 301.476562 237.984375 C 301.476562 237.984375 304.398438 237.984375 304.929688 237.984375 C 305.460938 237.984375 304.929688 236.652344 304.929688 236.121094 Z M 304.929688 236.121094 " fill-opacity="1" fill-rule="nonzero"/><path fill="#ffffff" d="M 239.066406 241.175781 C 239.066406 241.175781 241.457031 244.902344 239.066406 249.15625 L 279.167969 249.421875 L 280.761719 244.367188 L 278.902344 241.707031 L 277.839844 240.644531 Z M 239.066406 241.175781 " fill-opacity="1" fill-rule="nonzero"/><path fill="#f1404c" d="M 295.554688 240.441406 C 294.921875 240.261719 294.199219 240.367188 293.558594 240.355469 C 292.398438 240.335938 291.234375 240.320312 290.074219 240.308594 C 287.75 240.289062 285.429688 240.28125 283.105469 240.285156 C 277.703125 240.292969 272.300781 240.347656 266.898438 240.347656 C 262.222656 240.347656 257.546875 240.34375 252.871094 240.34375 C 248.140625 240.34375 243.300781 240.058594 238.585938 240.449219 C 238.492188 240.457031 238.417969 240.488281 238.355469 240.527344 C 238.300781 240.535156 238.246094 240.535156 238.195312 240.542969 C 237.625 240.59375 237.621094 241.429688 238.195312 241.429688 C 241.457031 241.441406 248.277344 241.488281 248.339844 241.457031 C 249.855469 241.433594 251.371094 241.402344 252.871094 241.402344 C 257.546875 241.402344 262.222656 241.402344 266.898438 241.402344 C 270.359375 241.402344 273.828125 241.421875 277.292969 241.441406 C 277.839844 241.707031 278.625 243.410156 278.769531 245.035156 C 278.929688 246.789062 277.839844 248.625 277.335938 248.894531 L 266.8125 248.894531 C 257.269531 248.894531 247.679688 248.621094 238.136719 248.917969 C 237.488281 248.9375 237.621094 249.933594 238.269531 249.957031 C 247.808594 250.253906 274.675781 249.953125 277.082031 249.953125 C 279.941406 249.953125 282.800781 249.953125 285.65625 249.953125 C 288.015625 249.953125 290.375 249.953125 292.734375 249.953125 C 294.117188 249.953125 295.792969 250.203125 296.972656 249.300781 C 297.40625 248.964844 297.65625 248.308594 297.890625 247.820312 C 298.226562 247.117188 298.371094 246.335938 298.421875 245.566406 C 298.550781 243.640625 297.664062 241.234375 295.726562 240.496094 C 295.671875 240.476562 295.613281 240.457031 295.554688 240.441406 Z M 295.554688 240.441406 " fill-opacity="1" fill-rule="nonzero"/><path fill="#c31e21" d="M 295.726562 240.496094 C 295.671875 240.476562 295.613281 240.457031 295.554688 240.441406 C 294.921875 240.261719 294.199219 240.367188 293.558594 240.355469 C 292.398438 240.335938 291.234375 240.320312 290.074219 240.308594 C 287.75 240.289062 285.429688 240.28125 283.105469 240.285156 C 281.4375 240.289062 279.769531 240.296875 278.101562 240.304688 C 280.054688 241.148438 280.550781 243.8125 280.433594 245.773438 C 280.351562 247.179688 279.40625 249.167969 278.003906 249.953125 L 292.734375 249.953125 C 294.117188 249.953125 295.792969 250.203125 296.972656 249.300781 C 297.40625 248.964844 297.65625 248.308594 297.890625 247.820312 C 298.226562 247.117188 298.371094 246.335938 298.421875 245.566406 C 298.550781 243.644531 297.664062 241.234375 295.726562 240.496094 Z M 295.726562 240.496094 " fill-opacity="1" fill-rule="nonzero"/><path fill="#d99b2b" d="M 216.632812 230.015625 C 216.632812 230.015625 212.507812 228.683594 212.207031 231.46875 C 211.90625 234.253906 212.726562 243.980469 216.160156 244.972656 C 219.59375 245.964844 216.632812 230.015625 216.632812 230.015625 Z M 216.632812 230.015625 " fill-opacity="1" fill-rule="nonzero"/><path fill="#f0b43f" d="M 235.390625 226.617188 C 235.390625 226.617188 234.003906 249.234375 232.988281 249.945312 C 231.972656 250.65625 216.582031 250.527344 216.578125 250.179688 C 216.574219 249.832031 214.199219 227.269531 214.183594 226.226562 C 214.167969 225.183594 235.359375 224.53125 235.390625 226.617188 Z M 235.390625 226.617188 " fill-opacity="1" fill-rule="nonzero"/><path fill="#ffce7a" d="M 230.730469 238.515625 C 231.027344 235.171875 231.199219 231.828125 231.160156 228.46875 C 231.144531 227.019531 233.339844 226.984375 233.375 228.433594 C 233.457031 231.792969 233.359375 235.140625 233.003906 238.484375 C 232.851562 239.933594 230.597656 240.007812 230.730469 238.515625 Z M 230.730469 238.515625 " fill-opacity="1" fill-rule="nonzero"/><path fill="#ffce7a" d="M 230.804688 241.183594 C 232.125 241.164062 232.5 243.765625 231.175781 243.785156 C 229.855469 243.804688 229.480469 241.203125 230.804688 241.183594 Z M 230.804688 241.183594 " fill-opacity="1" fill-rule="nonzero"/><path fill="#ffffff" d="M 220.980469 216.84375 C 221.625 215.480469 222.667969 214.355469 223.480469 213.085938 C 224.289062 211.816406 224.875 210.257812 224.449219 208.8125 C 224.238281 208.097656 223.796875 207.476562 223.363281 206.867188 C 222.789062 206.0625 222.210938 205.257812 221.636719 204.449219 C 221.207031 203.847656 220.769531 203.234375 220.511719 202.539062 C 219.835938 200.714844 220.480469 198.699219 221.125 196.867188 C 221.007812 198.175781 220.910156 199.582031 221.550781 200.730469 C 222.078125 201.679688 223.03125 202.304688 223.945312 202.890625 C 225.027344 203.582031 226.113281 204.277344 227.195312 204.96875 C 228.582031 205.855469 229.984375 206.761719 231.074219 207.992188 C 232.164062 209.226562 232.917969 210.851562 232.742188 212.488281 C 232.546875 214.324219 231.230469 215.863281 229.710938 216.90625 C 228.195312 217.953125 226.457031 218.617188 224.847656 219.507812 C 223.949219 220.007812 223.027344 220.632812 222.445312 221.496094 C 221.835938 222.402344 222.101562 223.300781 221.726562 224.207031 C 219.808594 222.808594 220.089844 218.730469 220.980469 216.84375 Z M 220.980469 216.84375 " fill-opacity="0.3" fill-rule="nonzero"/><g clip-path="url(#0a4e430dde)"><path fill="#aa6449" d="M 65.921875 249.933594 L 308.925781 249.933594 L 308.925781 256.949219 L 65.921875 256.949219 Z M 65.921875 249.933594 " fill-opacity="1" fill-rule="nonzero"/></g></svg>